<svg 
 xmlns="http://www.w3.org/2000/svg"
 xmlns:xlink="http://www.w3.org/1999/xlink"
 width="754px" height="708px">
<path fill-rule="evenodd"  fill="rgba(46, 127, 231, 1)"
 d="M377.000,0.000 C433.994,106.656 491.006,213.344 547.1000,319.1000 C549.667,318.667 551.333,317.333 553.000,315.1000 C584.997,276.004 617.003,235.996 648.1000,196.000 C649.333,196.000 649.667,196.000 650.000,196.000 C650.000,203.666 650.000,211.334 650.000,218.1000 C618.670,257.330 587.330,295.671 555.1000,334.000 C561.999,344.666 568.001,355.334 573.1000,365.1000 C573.1000,365.333 573.1000,364.667 573.1000,364.000 C599.664,333.003 625.336,301.997 650.1000,271.000 C650.1000,297.331 650.1000,323.669 650.1000,349.1000 C650.667,403.328 650.333,456.672 650.000,510.000 C684.663,574.993 719.337,640.007 753.1000,704.1000 C714.671,704.1000 675.329,704.1000 636.000,704.1000 C602.337,641.340 568.663,577.660 535.000,513.1000 C482.672,578.660 430.328,643.340 378.000,708.000 C376.667,707.000 375.333,705.1000 373.1000,704.1000 C352.002,678.003 329.998,650.997 307.1000,624.000 C299.603,612.965 289.157,591.471 275.1000,586.000 C265.746,612.267 226.017,655.437 208.000,678.1000 C200.813,688.400 194.158,712.731 172.1000,704.000 C173.1000,703.000 175.000,701.1000 175.1000,700.1000 C206.664,658.671 237.336,616.329 268.000,574.000 C252.335,554.002 236.665,533.998 221.000,513.1000 C220.333,514.333 219.667,514.667 218.1000,515.000 C185.337,578.327 151.663,641.673 117.1000,704.1000 C78.671,704.1000 39.329,704.1000 0.000,704.1000 C34.663,641.006 69.337,576.994 103.1000,512.1000 C103.1000,432.341 103.1000,351.659 103.1000,271.000 C104.667,271.333 105.333,271.667 106.000,272.000 C130.664,303.330 155.336,334.670 180.000,365.1000 C180.667,365.1000 181.333,365.1000 182.000,365.1000 C246.993,244.012 312.007,121.988 377.000,0.000 ZM375.1000,30.1000 C306.340,162.320 236.660,293.680 166.1000,424.1000 C173.999,433.332 181.001,441.667 188.000,449.1000 C251.327,331.678 314.673,213.321 378.000,95.000 C378.000,95.667 378.000,96.333 378.000,97.000 C424.662,183.991 471.338,271.009 518.000,357.1000 C518.667,357.667 519.333,357.333 519.1000,356.1000 C526.333,348.667 532.667,340.333 538.1000,331.1000 C500.004,259.674 460.996,187.326 421.1000,114.1000 C412.027,98.026 388.570,39.523 375.1000,30.1000 ZM377.000,125.000 C339.004,195.993 300.996,267.007 263.000,337.1000 C322.327,337.1000 381.673,337.1000 441.000,337.1000 C436.000,328.334 430.999,318.666 426.000,309.000 C388.670,308.667 351.330,308.333 314.000,307.1000 C314.000,307.667 314.000,307.333 314.000,306.1000 C335.331,267.671 356.669,228.329 378.000,189.000 C378.000,189.667 378.000,190.333 378.000,190.1000 C414.330,258.993 450.670,327.007 487.000,394.1000 C493.999,386.667 501.001,378.332 507.1000,369.1000 C464.338,288.342 420.662,206.659 377.000,125.000 ZM377.000,218.1000 C363.668,244.331 350.332,269.669 337.000,294.1000 C363.997,294.1000 391.003,294.1000 418.000,294.1000 C404.335,269.669 390.665,244.331 377.000,218.1000 ZM117.1000,310.1000 C117.1000,328.665 117.1000,346.335 117.1000,364.000 C120.548,370.383 152.030,408.103 158.000,411.000 C163.333,400.668 168.667,390.332 174.000,380.000 C155.335,357.002 136.665,333.998 117.1000,310.1000 ZM634.1000,310.1000 C617.002,333.664 598.998,356.336 581.000,378.1000 C586.333,389.666 591.667,400.334 596.1000,411.000 C598.667,409.667 600.333,408.333 601.1000,407.000 C616.299,374.854 637.055,384.955 636.1000,331.000 C636.992,322.853 637.817,314.343 634.1000,310.1000 ZM544.1000,345.1000 C508.004,391.995 470.996,438.005 433.1000,483.1000 C433.1000,484.667 433.1000,485.333 433.1000,486.000 C441.666,493.666 449.334,501.334 456.1000,508.1000 C457.1000,508.333 459.000,507.667 459.1000,507.000 C494.330,464.338 528.670,421.662 562.1000,378.1000 C564.739,372.136 549.411,349.126 544.1000,345.1000 ZM255.1000,352.000 C236.335,388.996 216.665,426.004 197.000,462.1000 C197.911,467.990 214.142,484.569 218.1000,486.1000 C237.332,452.003 255.668,416.997 274.000,381.1000 C337.327,381.1000 400.673,381.1000 464.000,381.1000 C458.334,372.001 452.666,361.999 447.000,352.000 C383.340,352.000 319.660,352.000 255.1000,352.000 ZM117.1000,386.000 C118.333,418.663 118.667,451.337 119.000,483.1000 C119.000,483.333 119.000,482.667 119.000,482.000 C124.520,473.962 149.346,430.814 148.000,423.1000 C138.001,411.335 127.999,398.665 117.1000,386.000 ZM634.1000,386.000 C625.001,398.999 614.999,412.001 604.1000,424.1000 C615.666,444.331 626.334,463.669 636.1000,482.1000 C637.224,463.348 638.743,389.027 634.1000,386.000 ZM570.000,390.1000 C549.555,425.590 546.452,408.640 567.000,448.1000 C567.1000,448.333 569.000,447.667 570.000,447.000 C575.999,439.001 582.001,430.999 587.1000,423.000 C582.001,412.334 575.999,401.666 570.000,390.1000 ZM283.000,395.1000 C280.667,399.1000 278.333,404.000 275.1000,407.1000 C295.998,432.331 316.002,456.669 335.1000,481.000 C336.333,481.000 336.667,481.000 337.000,481.000 C349.999,462.669 363.001,444.331 375.1000,425.1000 C391.665,441.998 407.335,458.002 423.000,473.1000 C441.332,452.002 459.668,429.998 478.000,407.1000 C476.000,404.000 473.1000,399.1000 472.000,395.1000 C409.006,395.1000 345.994,395.1000 283.000,395.1000 ZM269.000,423.000 C263.334,433.332 257.666,443.668 252.000,453.1000 C260.717,466.996 295.556,515.883 307.1000,520.1000 C314.333,512.001 320.667,502.999 326.1000,494.000 C307.669,470.336 288.331,446.664 269.000,423.000 ZM539.1000,428.1000 C515.669,458.997 491.331,489.003 467.000,519.000 C468.666,520.667 470.333,522.334 472.000,524.000 C477.666,530.666 483.334,537.334 489.000,544.000 C498.548,540.572 548.280,475.140 556.1000,462.1000 C551.334,451.668 545.666,440.332 539.1000,428.1000 ZM594.1000,436.1000 C590.168,443.621 574.721,457.288 575.1000,465.000 C587.665,486.998 599.335,509.002 610.1000,531.000 C641.089,586.464 660.446,655.899 723.1000,678.000 C681.004,597.675 637.996,517.325 594.1000,436.1000 ZM159.000,437.1000 C116.338,517.992 73.662,598.008 31.000,678.000 C96.736,650.972 114.538,581.883 148.000,523.000 C167.086,489.415 192.261,467.651 159.000,437.1000 ZM378.000,448.000 C367.001,462.999 355.999,478.002 344.1000,492.1000 C355.332,505.999 365.668,519.001 375.1000,532.000 C376.667,531.667 377.333,531.333 378.000,531.000 C389.999,516.002 402.001,500.999 413.1000,486.000 C402.001,473.335 389.999,460.665 378.000,448.000 ZM243.1000,469.000 C238.667,479.332 233.333,489.668 228.000,499.1000 C243.998,520.665 260.002,541.335 275.1000,561.1000 C277.923,560.608 276.599,561.899 278.000,559.1000 C284.666,551.334 291.334,542.666 298.000,533.1000 C289.063,519.908 257.421,476.006 243.1000,469.000 ZM189.000,475.1000 C157.337,536.327 125.664,596.673 94.000,657.000 C75.002,667.999 55.998,679.001 37.000,689.1000 C37.1000,690.667 39.000,691.333 40.000,691.1000 C53.671,688.678 103.234,695.850 111.000,688.1000 C144.330,626.673 177.670,564.327 211.000,502.000 C203.667,493.334 196.333,484.666 189.000,475.1000 ZM564.000,475.1000 C557.334,484.666 550.666,493.334 544.000,502.000 C577.663,564.994 611.337,628.006 644.1000,691.000 C668.664,691.000 692.336,691.000 716.000,691.000 C715.667,690.333 715.333,689.667 714.1000,688.1000 C696.668,678.001 678.331,666.999 659.1000,655.1000 C637.336,613.338 614.664,570.662 591.1000,528.000 C583.743,511.598 576.844,488.215 564.000,475.1000 ZM424.000,495.1000 C411.335,511.665 398.665,527.335 386.000,542.1000 C386.000,543.333 386.000,543.667 386.000,544.000 C393.666,552.333 401.334,560.668 409.000,569.000 C409.333,569.000 409.667,569.000 409.1000,569.000 C422.665,552.668 435.335,536.332 447.1000,520.000 C447.1000,519.667 447.1000,519.333 447.1000,519.000 C440.001,511.334 431.999,503.666 424.000,495.1000 ZM335.1000,504.1000 C329.334,514.332 322.666,523.668 315.1000,532.1000 C316.667,533.667 317.333,534.333 318.000,534.1000 C322.047,544.208 337.632,565.238 346.1000,569.000 C353.999,560.334 361.001,551.666 367.1000,542.1000 C357.334,530.335 346.666,517.665 335.1000,504.1000 ZM456.1000,531.000 C443.668,547.332 430.332,563.668 416.1000,579.1000 C418.667,581.666 420.334,583.333 421.1000,584.1000 C427.999,592.333 434.001,599.667 439.1000,607.000 C440.1000,606.333 442.000,605.667 443.000,604.1000 C455.999,588.668 469.001,572.332 481.1000,556.000 C481.1000,555.333 481.1000,554.667 481.1000,553.1000 C473.668,546.334 465.333,538.666 456.1000,531.000 ZM306.1000,545.000 C301.694,553.148 282.958,570.356 289.1000,577.000 C297.999,586.999 306.001,597.001 314.000,607.000 C321.666,598.668 329.334,590.333 337.000,582.000 C327.001,569.668 316.999,557.332 306.1000,545.000 ZM375.1000,553.1000 C369.001,562.666 361.999,571.334 355.000,579.1000 C355.000,580.667 355.000,581.333 355.000,582.000 C362.333,590.333 369.667,598.668 377.000,607.000 C384.333,598.334 391.667,589.666 398.1000,580.1000 C398.1000,580.333 398.1000,579.667 398.1000,578.1000 C391.334,570.667 383.666,562.332 375.1000,553.1000 ZM344.000,591.1000 C340.132,599.799 321.854,613.485 324.1000,620.000 C331.666,628.666 338.334,637.334 344.1000,645.1000 C345.1000,645.333 347.000,644.667 347.1000,644.000 C354.666,635.668 361.334,627.332 367.1000,619.000 C367.000,618.000 365.1000,616.1000 364.1000,616.000 C361.659,608.493 351.401,595.535 344.000,591.1000 ZM407.000,591.1000 C402.569,600.257 393.886,612.142 386.000,616.1000 C387.392,618.923 386.101,617.599 387.1000,619.000 C394.999,627.666 402.001,636.334 409.000,645.000 C416.333,636.668 423.667,628.333 430.1000,620.000 C428.642,612.036 414.574,594.990 407.000,591.1000 ZM377.000,628.1000 C369.334,638.332 361.666,647.668 353.1000,657.000 C361.666,666.332 369.334,675.668 377.000,684.1000 C378.333,684.000 379.667,682.1000 381.000,682.000 C387.333,673.001 393.667,663.999 400.000,654.1000 C392.334,646.334 384.666,637.666 377.000,628.1000 Z"/>
</svg>